<svg width="364" height="364" viewBox="0 0 364 364" fill="none" xmlns="http://www.w3.org/2000/svg" > <path d="M143.539 143.539L133.233 182L143.539 220.461L182 230.767L220.461 220.461L230.767 182L220.461 143.539L182 133.233L143.539 143.539Z" fill="white" /> <path d="M220.461 220.461L215.308 239.692L248.617 248.617L239.692 215.308L220.461 220.461Z" fill="white" /> <path d="M215.308 124.308L220.461 143.539L239.692 148.692L248.617 115.383L215.308 124.308Z" fill="white" /> <path d="M143.539 220.461L124.308 215.308L115.383 248.617L148.692 239.692L143.539 220.461Z" fill="white" /> <path d="M124.308 148.692L143.539 143.539L148.692 124.308L115.383 115.383L124.308 148.692Z" fill="white" /> <path d="M182 230.767L148.692 239.692L175.466 339.617L182 364L188.534 339.617L215.308 239.692L182 230.767Z" fill="white" /> <path d="M148.692 124.308L182 133.233L215.308 124.308L188.534 24.3834L182 0L175.466 24.3834L162.079 74.3458L148.692 124.308Z" fill="white" /> <path d="M239.692 148.692L230.767 182L239.692 215.308L339.617 188.534L364 182L339.617 175.466L239.692 148.692Z" fill="white" /> <path d="M133.233 182L124.308 148.692L24.3834 175.466L0 182L24.3834 188.534L124.308 215.308L133.233 182Z" fill="white" /> </svg>
